#Comment line ignore any data following # character 
#Hierarchical Translation and Rotation (.htr) file 
[Header]	
#Header keywords are followed by a single value 
FileType HTR		#Single word string
DataType HTRS		#Translation followed by rotation and scale data
FileVersion 1		#integer
NumSegments 64		#integer
NumFrames 3		#integer
DataFrameRate 30		#integer, data frame rate in this file
EulerRotationOrder ZYX
CalibrationUnits mm
RotationUnits Degrees
GlobalAxisofGravity Y
BoneLengthAxis Y
ScaleFactor 1.00
[SegmentNames&Hierarchy]
#CHILD	PARENT
Pinger_Root GLOBAL
Pelvis Pinger_Root
L_Hip Pelvis
R_Hip Pelvis
Rear_Leg01 Pelvis
Spine1 Pelvis
L_Leg01 L_Hip
L_Leg02 L_Leg01
L_Leg03 L_Leg02
L_Foot L_Leg03
L_Toe1_01 L_Foot
L_Toe2_01 L_Foot
L_Toe3_01 L_Foot
planeAlignerLeft L_Foot
L_Toe1_02 L_Toe1_01
L_Toe1_03 L_Toe1_02
L_Toe2_02 L_Toe2_01
L_Toe2_03 L_Toe2_02
L_Toe3_02 L_Toe3_01
L_Toe3_03 L_Toe3_02
planeLockWeightLeft planeAlignerLeft
R_Leg01 R_Hip
R_Leg02 R_Leg01
R_Leg03 R_Leg02
R_Foot R_Leg03
planeAlignerRight R_Foot
R_Toe1_01 R_Foot
R_Toe2_01 R_Foot
R_Toe3_01 R_Foot
planeLockWeightRight planeAlignerRight
R_Toe1_02 R_Toe1_01
R_Toe1_03 R_Toe1_02
R_Toe2_02 R_Toe2_01
R_Toe2_03 R_Toe2_02
R_Toe3_02 R_Toe3_01
R_Toe3_03 R_Toe3_02
Rear_Leg02 Rear_Leg01
Rear_Leg03 Rear_Leg02
Rear_Leg04 Rear_Leg03
Rear_Foot Rear_Leg04
planeAlignerCenter Rear_Foot
Rear_Toe1_01 Rear_Foot
Rear_Toe2_01 Rear_Foot
Rear_Toe3_01 Rear_Foot
planeLockWeightCenter planeAlignerCenter
Rear_Toe1_02 Rear_Toe1_01
Rear_Toe1_03 Rear_Toe1_02
Rear_Toe2_02 Rear_Toe2_01
Rear_Toe2_03 Rear_Toe2_02
Rear_Toe3_02 Rear_Toe3_01
Rear_Toe3_03 Rear_Toe3_02
Back_Bone Spine1
Head Spine1
Motor_Bone Back_Bone
Ping_Mechanism Back_Bone
BN_LookIK Head
bottomMouth Head
L_Mouth01 Head
L_mouthFront Head
mouthGun Head
R_Mouth01 Head
R_mouthFront Head
TopMouth Head
weapon_bone Head
[BasePosition]
#SegmentName Tx, Ty, Tz, Rx, Ry, Rz, BoneLength
Pinger_Root 0.000000 0.000000 0.000000 -90.000000 0.000000 0.000000 10.000000 
Pelvis 0.000000 0.000000 0.000000 0.000000 0.000000 0.000000 10.000000 
L_Hip 0.000000 0.000000 0.000000 0.000000 0.000000 0.000000 10.000000 
R_Hip 0.000000 0.000000 0.000000 0.000000 0.000000 0.000000 10.000000 
Rear_Leg01 0.000000 0.000000 0.000000 0.000000 0.000000 0.000000 10.000000 
Spine1 0.000000 0.000000 0.000000 0.000000 0.000000 0.000000 10.000000 
L_Leg01 0.000000 0.000000 0.000000 0.000000 0.000000 0.000000 10.000000 
L_Leg02 0.000000 0.000000 0.000000 0.000000 0.000000 0.000000 10.000000 
L_Leg03 0.000000 0.000000 0.000000 0.000000 0.000000 0.000000 10.000000 
L_Foot 0.000000 0.000000 0.000000 0.000000 0.000000 0.000000 10.000000 
L_Toe1_01 0.000000 0.000000 0.000000 0.000000 0.000000 0.000000 10.000000 
L_Toe2_01 0.000000 0.000000 0.000000 0.000000 0.000000 0.000000 10.000000 
L_Toe3_01 0.000000 0.000000 0.000000 0.000000 0.000000 0.000000 10.000000 
planeAlignerLeft 0.000000 0.000000 0.000000 0.000000 0.000000 0.000000 10.000000 
L_Toe1_02 0.000000 0.000000 0.000000 0.000000 0.000000 0.000000 10.000000 
L_Toe1_03 0.000000 0.000000 0.000000 0.000000 0.000000 0.000000 10.000000 
L_Toe2_02 0.000000 0.000000 0.000000 0.000000 0.000000 0.000000 10.000000 
L_Toe2_03 0.000000 0.000000 0.000000 0.000000 0.000000 0.000000 10.000000 
L_Toe3_02 0.000000 0.000000 0.000000 0.000000 0.000000 0.000000 10.000000 
L_Toe3_03 0.000000 0.000000 0.000000 0.000000 0.000000 0.000000 10.000000 
planeLockWeightLeft 0.000000 0.000000 0.000000 0.000000 0.000000 0.000000 10.000000 
R_Leg01 0.000000 0.000000 0.000000 0.000000 0.000000 0.000000 10.000000 
R_Leg02 0.000000 0.000000 0.000000 0.000000 0.000000 0.000000 10.000000 
R_Leg03 0.000000 0.000000 0.000000 0.000000 0.000000 0.000000 10.000000 
R_Foot 0.000000 0.000000 0.000000 0.000000 0.000000 0.000000 10.000000 
planeAlignerRight 0.000000 0.000000 0.000000 0.000000 0.000000 0.000000 10.000000 
R_Toe1_01 0.000000 0.000000 0.000000 0.000000 0.000000 0.000000 10.000000 
R_Toe2_01 0.000000 0.000000 0.000000 0.000000 0.000000 0.000000 10.000000 
R_Toe3_01 0.000000 0.000000 0.000000 0.000000 0.000000 0.000000 10.000000 
planeLockWeightRight 0.000000 0.000000 0.000000 0.000000 0.000000 0.000000 10.000000 
R_Toe1_02 0.000000 0.000000 0.000000 0.000000 0.000000 0.000000 10.000000 
R_Toe1_03 0.000000 0.000000 0.000000 0.000000 0.000000 0.000000 10.000000 
R_Toe2_02 0.000000 0.000000 0.000000 0.000000 0.000000 0.000000 10.000000 
R_Toe2_03 0.000000 0.000000 0.000000 0.000000 0.000000 0.000000 10.000000 
R_Toe3_02 0.000000 0.000000 0.000000 0.000000 0.000000 0.000000 10.000000 
R_Toe3_03 0.000000 0.000000 0.000000 0.000000 0.000000 0.000000 10.000000 
Rear_Leg02 0.000000 0.000000 0.000000 0.000000 0.000000 0.000000 10.000000 
Rear_Leg03 0.000000 0.000000 0.000000 0.000000 0.000000 0.000000 10.000000 
Rear_Leg04 0.000000 0.000000 0.000000 0.000000 0.000000 0.000000 10.000000 
Rear_Foot 0.000000 0.000000 0.000000 0.000000 0.000000 0.000000 10.000000 
planeAlignerCenter 0.000000 0.000000 0.000000 0.000000 0.000000 0.000000 10.000000 
Rear_Toe1_01 0.000000 0.000000 0.000000 0.000000 0.000000 0.000000 10.000000 
Rear_Toe2_01 0.000000 0.000000 0.000000 0.000000 0.000000 0.000000 10.000000 
Rear_Toe3_01 0.000000 0.000000 0.000000 0.000000 0.000000 0.000000 10.000000 
planeLockWeightCenter 0.000000 0.000000 0.000000 0.000000 0.000000 0.000000 10.000000 
Rear_Toe1_02 0.000000 0.000000 0.000000 0.000000 0.000000 0.000000 10.000000 
Rear_Toe1_03 0.000000 0.000000 0.000000 0.000000 0.000000 0.000000 10.000000 
Rear_Toe2_02 0.000000 0.000000 0.000000 0.000000 0.000000 0.000000 10.000000 
Rear_Toe2_03 0.000000 0.000000 0.000000 0.000000 0.000000 0.000000 10.000000 
Rear_Toe3_02 0.000000 0.000000 0.000000 0.000000 0.000000 0.000000 10.000000 
Rear_Toe3_03 0.000000 0.000000 0.000000 0.000000 0.000000 0.000000 10.000000 
Back_Bone 0.000000 0.000000 0.000000 0.000000 0.000000 0.000000 10.000000 
Head 0.000000 0.000000 0.000000 0.000000 0.000000 0.000000 10.000000 
Motor_Bone 0.000000 0.000000 0.000000 0.000000 0.000000 0.000000 10.000000 
Ping_Mechanism 0.000000 0.000000 0.000000 0.000000 0.000000 0.000000 10.000000 
BN_LookIK 0.000000 0.000000 0.000000 0.000000 0.000000 0.000000 10.000000 
bottomMouth 0.000000 0.000000 0.000000 0.000000 0.000000 0.000000 10.000000 
L_Mouth01 0.000000 0.000000 0.000000 0.000000 0.000000 0.000000 10.000000 
L_mouthFront 0.000000 0.000000 0.000000 0.000000 0.000000 0.000000 10.000000 
mouthGun 0.000000 0.000000 0.000000 0.000000 0.000000 0.000000 10.000000 
R_Mouth01 0.000000 0.000000 0.000000 0.000000 0.000000 0.000000 10.000000 
R_mouthFront 0.000000 0.000000 0.000000 0.000000 0.000000 0.000000 10.000000 
TopMouth 0.000000 0.000000 0.000000 0.000000 0.000000 0.000000 10.000000 
weapon_bone 0.000000 0.000000 0.000000 0.000000 0.000000 0.000000 10.000000 
#Beginning of Data. Separated by tabs
#Fr	Tx	Ty	Tz	Rx	Ry	Rz	SF
[Pinger_Root]
104 0.000000 0.000000 0.000000 -0.000075 -0.000000 -0.000020 0.000000
105 0.000000 0.000000 0.000000 -0.000075 -0.000000 -0.000020 0.000000
106 0.000000 0.000000 0.000000 -0.000075 -0.000000 -0.000020 0.000000
[Pelvis]
104 72.227875 916.536133 4699.976563 110.257309 -89.022812 -117.840736 4789.053711
105 72.227875 916.536194 4659.402344 -146.944214 -89.258751 139.350754 4749.240234
106 72.227875 916.536194 4601.255371 -125.138535 -88.858421 117.541138 4692.207031
[L_Hip]
104 5.766392 125.831482 872.656799 160.158691 -45.484894 122.312187 881.701050
105 5.766392 125.831482 872.656799 160.158691 -45.484905 122.312202 881.701050
106 5.766392 125.831482 872.656799 160.158691 -45.484894 122.312202 881.701050
[R_Hip]
104 5.765438 125.836372 -872.654907 38.087841 49.812691 125.703735 881.699829
105 5.765438 125.836372 -872.654907 38.087841 49.812698 125.703735 881.699829
106 5.765438 125.836372 -872.654907 38.087833 49.812672 125.703735 881.699829
[Rear_Leg01]
104 -192.298416 -925.602966 -0.001907 169.789368 2.074359 -156.290588 945.367432
105 -192.298416 -925.602966 -0.001907 169.685730 1.856920 -157.438034 945.367432
106 -192.298416 -925.602966 -0.001907 169.677094 1.842593 -157.866791 945.367432
[Spine1]
104 290.604584 5.007505 0.000477 7.054808 -1.277491 26.624395 290.647736
105 290.604584 5.007505 0.000477 7.188889 -0.960950 24.784855 290.647736
106 290.604584 5.007505 0.000477 7.244171 -0.810662 23.532322 290.647736
[L_Leg01]
104 761.932007 -0.002384 -0.069261 27.328222 -11.013481 -24.932478 761.932068
105 761.932007 -0.002384 -0.069261 26.320448 -12.376841 -21.037903 761.932068
106 761.932007 -0.002384 -0.069261 25.430552 -13.567798 -17.288902 761.932068
[L_Leg02]
104 1441.140503 -0.000954 -0.000715 0.362781 -0.061619 -110.349930 1441.140503
105 1441.140503 -0.000954 -0.000715 0.777222 -0.101942 -114.514557 1441.140503
106 1441.140503 -0.000954 -0.000715 1.258929 -0.145171 -119.117516 1441.140503
[L_Leg03]
104 1686.963989 -0.000715 -0.000954 -0.012738 0.004476 113.845566 1686.963989
105 1686.963989 -0.000715 -0.000954 -0.014058 0.006610 114.347229 1686.963989
106 1686.963989 -0.000715 -0.000954 -0.018191 0.004034 115.005180 1686.963989
[L_Foot]
104 3041.570068 -30.715107 11.297464 2.231158 13.684785 52.786568 3041.746094
105 3041.570068 -30.715107 11.297464 2.181068 13.593395 53.617573 3041.746094
106 3041.570068 -30.715107 11.297464 2.129636 13.502710 54.448338 3041.746094
[L_Toe1_01]
104 -188.216690 -224.732346 -21.137953 93.685341 -6.905254 -171.695511 293.899567
105 -188.216690 -224.732346 -21.137953 93.702240 -6.883902 -171.832977 293.899567
106 -188.216690 -224.732346 -21.137953 93.719086 -6.862508 -171.970428 293.899567
[L_Toe2_01]
104 200.746536 -219.926590 148.838394 -89.906807 -26.284323 -52.960636 332.896027
105 200.746536 -219.926590 148.838394 -89.965370 -26.298077 -52.819153 332.896027
106 200.746536 -219.926590 148.838394 -90.023994 -26.311703 -52.677643 332.896027
[L_Toe3_01]
104 188.832520 -219.859131 -191.078659 -99.806450 13.744105 -67.944237 347.140900
105 188.832520 -219.859131 -191.078659 -99.797318 13.791568 -67.808662 347.140900
106 188.832520 -219.859131 -191.078659 -99.788055 13.839000 -67.673035 347.140900
[planeAlignerLeft]
104 32.400879 -595.940796 101.722878 169.311020 -76.319229 89.966385 605.427734
105 32.829853 -593.843079 101.280251 169.310883 -76.318596 89.966431 603.311768
106 32.849201 -593.743286 101.256508 169.310776 -76.317940 89.966446 603.210632
[L_Toe1_02]
104 413.761139 0.000477 0.000000 0.001384 -25.964844 0.001384 413.761139
105 413.761139 0.000477 0.000000 0.001384 -25.966257 0.001384 413.761139
106 413.761139 0.000477 0.000000 0.001384 -25.967674 0.001384 413.761139
[L_Toe1_03]
104 464.317322 0.000358 -0.000089 0.003706 53.071453 0.003706 464.317322
105 464.317322 0.000358 -0.000089 0.003720 53.215275 0.003720 464.317322
106 464.317322 0.000358 -0.000089 0.003734 53.359089 0.003734 464.317322
[L_Toe2_02]
104 342.235809 -0.000477 0.000238 0.001188 -72.255058 0.001188 342.235809
105 342.235809 -0.000477 0.000238 0.001188 -72.304047 0.001188 342.235809
106 342.235809 -0.000477 0.000238 0.001188 -72.353020 0.001188 342.235809
[L_Toe2_03]
104 420.210846 -0.000715 0.000000 0.027141 85.043343 0.027141 420.210846
105 420.210846 -0.000715 0.000000 0.028082 85.209442 0.028082 420.210846
106 420.210846 -0.000715 0.000000 0.029090 85.375565 0.029090 420.210846
[L_Toe3_02]
104 329.270111 0.000954 0.000000 0.001178 -80.352127 0.001178 329.270111
105 329.270111 0.000954 0.000000 0.001178 -80.363831 0.001178 329.270111
106 329.270111 0.000954 0.000000 0.001178 -80.375465 0.001178 329.270111
[L_Toe3_03]
104 439.137451 -0.001907 0.000954 -179.995789 78.954979 -179.992279 439.137451
105 439.137451 -0.001907 0.000954 -179.995880 78.780350 -179.992371 439.137451
106 439.137451 -0.001907 0.000954 -179.995956 78.605736 -179.992447 439.137451
[planeLockWeightLeft]
104 999.998962 0.098191 0.075970 -0.011826 -0.004376 0.005620 999.999023
105 999.998962 0.098193 0.075969 -0.011826 -0.004376 0.005620 999.999023
106 999.998962 0.098195 0.075968 -0.011826 -0.004376 0.005620 999.999023
[R_Leg01]
104 761.455627 -0.001907 -0.000358 118.553314 5.542998 45.430725 761.455688
105 761.455627 -0.001907 -0.000358 118.872406 2.811503 43.874878 761.455688
106 761.455627 -0.001907 -0.000358 119.055992 0.028492 41.970295 761.455688
[R_Leg02]
104 1441.140625 0.000000 -0.000238 -0.415084 0.068164 -93.716591 1441.140625
105 1441.140625 0.000000 -0.000238 -0.560473 0.047722 -97.665512 1441.140625
106 1441.140625 0.000000 -0.000238 -0.759741 -0.005187 -103.111137 1441.140625
[R_Leg03]
104 1686.963989 0.000954 0.001431 0.049303 -0.026136 124.186462 1686.963989
105 1686.963989 0.000954 0.001431 0.055684 -0.028784 125.403069 1686.963989
106 1686.963989 0.000954 0.001431 0.061900 -0.031794 127.033340 1686.963989
[R_Foot]
104 3041.560059 -30.531288 -11.204481 -1.582601 -24.932789 49.998047 3041.734131
105 3041.560059 -30.531288 -11.204481 -1.465869 -24.909012 50.740112 3041.734131
106 3041.560059 -30.531288 -11.204481 -1.262087 -24.876503 51.868649 3041.734131
[planeAlignerRight]
104 -127.836494 -577.077698 -313.668396 -36.650558 -71.423874 -64.286011 669.140259
105 -127.329750 -574.868225 -313.126251 -36.648399 -71.421387 -64.287727 666.884094
106 -127.307487 -574.767517 -313.099548 -36.646236 -71.418884 -64.289436 666.780457
[R_Toe1_01]
104 -188.383347 -224.864899 21.052242 76.763802 -0.338164 -172.434158 294.101532
105 -188.383347 -224.864899 21.052242 76.763618 -0.376378 -172.581421 294.101532
106 -188.383347 -224.864899 21.052242 76.763542 -0.414591 -172.728683 294.101532
[R_Toe2_01]
104 200.637817 -220.002121 -148.787384 -91.863342 32.822433 -59.411816 332.857574
105 200.637817 -220.002121 -148.787384 -91.803345 32.848190 -59.297031 332.857574
106 200.637817 -220.002121 -148.787384 -91.743263 32.873829 -59.182175 332.857574
[R_Toe3_01]
104 188.606735 -220.092957 191.126343 -73.247765 -8.392699 -73.948845 347.192566
105 188.606735 -220.092957 191.126343 -73.236855 -8.424765 -73.852501 347.192566
106 188.606735 -220.092957 191.126343 -73.225990 -8.456848 -73.756149 347.192566
[planeLockWeightRight]
104 999.999329 0.000000 0.075996 -0.011823 -0.004379 -0.000027 999.999329
105 999.999329 0.000000 0.075996 -0.011823 -0.004379 -0.000027 999.999329
106 999.999329 0.000000 0.075995 -0.011823 -0.004379 -0.000027 999.999329
[R_Toe1_02]
104 413.762085 0.000477 -0.000119 0.001393 -24.748690 0.001393 413.762085
105 413.762085 0.000477 -0.000119 0.001394 -24.737602 0.001394 413.762085
106 413.762085 0.000477 -0.000119 0.001394 -24.726513 0.001394 413.762085
[R_Toe1_03]
104 464.317810 0.000000 0.001088 0.006529 69.288101 0.006529 464.317810
105 464.317810 0.000000 0.001088 0.006577 69.440735 0.006577 464.317810
106 464.317810 0.000000 0.001088 0.006625 69.593338 0.006625 464.317810
[R_Toe2_02]
104 342.234741 -0.000954 0.000238 0.001198 -67.016586 0.001198 342.234741
105 342.234741 -0.000954 0.000238 0.001197 -67.115944 0.001197 342.234741
106 342.234741 -0.000954 0.000238 0.001197 -67.215302 0.001197 342.234741
[R_Toe2_03]
104 420.210846 0.000715 -0.000268 0.008069 73.272873 0.008069 420.210846
105 420.210846 0.000715 -0.000268 0.008185 73.513275 0.008185 420.210846
106 420.210846 0.000715 -0.000268 0.008191 73.524391 0.008191 420.210846
[R_Toe3_02]
104 329.270355 -0.000477 -0.000954 0.001185 -74.341743 0.001185 329.270355
105 329.270355 -0.000477 -0.000954 0.001185 -74.430161 0.001185 329.270355
106 329.270355 -0.000477 -0.000954 0.001184 -74.518616 0.001184 329.270355
[R_Toe3_03]
104 439.137939 0.000238 0.001431 -0.011100 82.950150 -0.007596 439.137939
105 439.137939 0.000238 0.001431 -0.011444 83.200989 -0.007941 439.137939
106 439.137939 0.000238 0.001431 -0.011460 83.212509 -0.007957 439.137939
[Rear_Leg02]
104 1162.777710 -0.029802 0.005960 0.197930 -2.985422 -114.930748 1162.777710
105 1162.777710 -0.029802 0.005960 0.250499 -2.981344 -116.002815 1162.777710
106 1162.777710 -0.029802 0.005960 0.354532 -2.967190 -118.013092 1162.777710
[Rear_Leg03]
104 607.192505 -0.013351 -0.073195 0.006532 -0.001928 61.101460 607.192505
105 607.192505 -0.013351 -0.073195 0.006524 -0.001952 61.521099 607.192505
106 607.192505 -0.013351 -0.073195 0.006511 -0.001997 62.316944 607.192505
[Rear_Leg04]
104 995.874512 -0.020504 -0.011921 -0.039653 -0.017296 52.139107 995.874573
105 995.874512 -0.020504 -0.011921 -0.039770 -0.017025 52.922207 995.874573
106 995.874512 -0.020504 -0.011921 -0.039985 -0.016514 54.390823 995.874573
[Rear_Foot]
104 3096.176270 -0.067472 -0.041425 -142.376053 85.807968 49.977051 3096.176270
105 3096.176270 -0.067472 -0.041425 -142.388428 85.807220 49.909813 3096.176270
106 3096.176270 -0.067472 -0.041425 -142.471878 85.804649 49.835964 3096.176270
[planeAlignerCenter]
104 1.039009 -15.213318 -760.727173 12.240772 -0.001473 179.998184 760.880005
105 1.039168 -15.213114 -762.995239 12.240772 -0.001473 179.998184 763.147583
106 1.039327 -15.212912 -765.263367 12.240772 -0.001473 179.998184 765.415283
[Rear_Toe1_01]
104 0.653352 83.966492 -371.173737 0.287368 40.735516 90.405563 380.553192
105 0.653352 83.966492 -371.173737 0.288335 40.878445 90.406456 380.553192
106 0.653352 83.966492 -371.173737 0.289306 41.021351 90.407326 380.553192
[Rear_Toe2_01]
104 178.200760 -294.826019 -362.060547 -5.933745 35.277565 -62.539986 499.765686
105 178.200760 -294.826019 -362.060547 -5.911074 35.396935 -62.533367 499.765686
106 178.200760 -294.826019 -362.060547 -5.888351 35.516304 -62.526695 499.765686
[Rear_Toe3_01]
104 -153.359680 -308.780914 -362.060852 2.376540 34.761898 -115.712883 499.952881
105 -153.359680 -308.780914 -362.060852 2.361804 34.879524 -115.717216 499.952881
106 -153.359680 -308.780914 -362.060852 2.347035 34.997128 -115.721573 499.952881
[planeLockWeightCenter]
104 1000.000244 0.000076 0.076249 -0.011814 -0.004373 -0.000015 1000.000244
105 1000.000244 0.000074 0.076249 -0.011814 -0.004373 -0.000015 1000.000244
106 1000.000244 0.000071 0.076248 -0.011814 -0.004373 -0.000015 1000.000244
[Rear_Toe1_02]
104 379.707825 0.194073 0.000477 -0.000284 -32.250576 0.006957 379.707855
105 379.707825 0.194073 0.000477 -0.000279 -32.184074 0.006955 379.707855
106 379.707825 0.194073 0.000477 -0.000274 -32.117577 0.006952 379.707855
[Rear_Toe1_03]
104 500.129700 0.165701 0.000119 0.000196 54.652313 0.007536 500.129761
105 500.129700 0.165701 0.000119 0.000151 54.263401 0.007499 500.129761
106 500.129700 0.165701 0.000119 0.000107 53.874493 0.007463 500.129761
[Rear_Toe2_02]
104 340.494507 0.000238 -0.000954 0.001177 -80.694962 0.001177 340.494507
105 340.494507 0.000238 -0.000954 0.001178 -80.658348 0.001178 340.494507
106 340.494507 0.000238 -0.000954 0.001178 -80.621849 0.001178 340.494507
[Rear_Toe2_03]
104 433.103577 0.000000 0.000238 0.132551 88.985481 0.132551 433.103546
105 433.103577 0.000000 0.000238 0.119395 88.873604 0.119395 433.103546
106 433.103577 0.000000 0.000238 0.108615 88.761726 0.108615 433.103546
[Rear_Toe3_02]
104 340.494141 -0.000358 -0.000477 0.001179 -79.296806 0.001179 340.494171
105 340.494141 -0.000358 -0.000477 0.001179 -79.261436 0.001179 340.494171
106 340.494141 -0.000358 -0.000477 0.001179 -79.226166 0.001179 340.494171
[Rear_Toe3_03]
104 433.103577 0.001431 -0.000238 -0.018780 86.132187 -0.015282 433.103546
105 433.103577 0.001431 -0.000238 -0.018324 86.025612 -0.014825 433.103546
106 433.103577 0.001431 -0.000238 -0.017891 85.919037 -0.014392 433.103546
[Back_Bone]
104 1312.175781 -701.934692 0.000954 1.545197 0.291850 -88.252892 1488.125488
105 1312.175781 -701.934692 0.000954 1.547992 0.284092 -87.810341 1488.125488
106 1312.175781 -701.934692 0.000954 1.548659 0.276607 -87.514954 1488.125488
[Head]
104 1406.159424 809.709290 0.001431 -0.045234 -0.833363 9.836386 1622.625488
105 1406.159424 809.709290 0.001431 -0.013733 -0.831348 10.307857 1622.625488
106 1406.159424 809.709290 0.001431 0.000306 -0.827756 10.471662 1622.625488
[Motor_Bone]
104 1158.364380 -417.834747 0.000477 -0.103760 0.081453 -106.589661 1231.419434
105 1158.364380 -417.834747 0.000477 -0.099452 0.078932 -106.089142 1231.419434
106 1158.364380 -417.834747 0.000477 -0.097417 0.077520 -106.002411 1231.419434
[Ping_Mechanism]
104 1211.722534 -431.304626 -1.664592 0.000103 -0.000053 82.120995 1286.195068
105 1217.420410 -434.342987 -2.167150 0.000103 -0.000053 82.120995 1292.583130
106 1221.094604 -436.081970 -2.153675 0.000103 -0.000053 82.120995 1296.628052
[BN_LookIK]
104 193.241119 1380.371704 -0.002861 0.000000 89.965736 -31.038179 1393.832153
105 193.241119 1380.371704 -0.002861 0.000000 89.965736 -31.038179 1393.832153
106 193.241119 1380.371704 -0.002861 0.000000 89.965736 -31.038179 1393.832153
[bottomMouth]
104 -435.092926 615.759399 -0.000954 -0.000022 0.000016 73.527184 753.966492
105 -435.092926 615.759399 -0.000954 -0.000022 0.000016 73.527184 753.966492
106 -435.092926 615.759399 -0.000954 -0.000022 0.000016 73.527184 753.966492
[L_Mouth01]
104 554.440979 7.658243 838.222046 150.204178 23.759130 109.605339 1005.027161
105 554.440979 7.658243 838.222046 150.204178 23.759130 109.605339 1005.027161
106 554.440979 7.658243 838.222046 150.204178 23.759130 109.605339 1005.027161
[L_mouthFront]
104 551.629089 934.514771 339.150421 0.000081 2.804060 79.119301 1136.941284
105 551.629089 934.514771 339.150421 0.000081 2.804060 79.119301 1136.941284
106 551.629089 934.514771 339.150421 0.000081 2.804060 79.119301 1136.941284
[mouthGun]
104 55.332661 1627.420898 0.000000 0.000023 0.000009 -11.038128 1628.361328
105 55.332661 1627.420898 0.000000 0.000023 0.000009 -11.038128 1628.361328
106 55.332661 1627.420898 0.000000 0.000023 0.000009 -11.038128 1628.361328
[R_Mouth01]
104 554.442383 7.659197 -838.223938 29.795891 -23.759109 109.605331 1005.029541
105 554.442383 7.659197 -838.223938 29.795891 -23.759109 109.605331 1005.029541
106 554.442383 7.659197 -838.223938 29.795891 -23.759109 109.605331 1005.029541
[R_mouthFront]
104 551.629089 934.514282 -339.151367 0.000029 -2.803930 79.119133 1136.941162
105 551.629089 934.514282 -339.151367 0.000029 -2.803930 79.119133 1136.941162
106 551.629089 934.514282 -339.151367 0.000029 -2.803930 79.119133 1136.941162
[TopMouth]
104 461.269867 -56.106091 -0.008583 -0.000059 -0.000268 92.025169 464.669525
105 461.269867 -56.106091 -0.008583 -0.000059 -0.000268 92.025169 464.669525
106 461.269867 -56.106091 -0.008583 -0.000059 -0.000268 92.025169 464.669525
[weapon_bone]
104 -987.239868 1448.372803 0.001431 0.000000 89.965736 -31.038221 1752.833740
105 -987.239868 1448.372803 0.001431 0.000000 89.965736 -31.038221 1752.833740
106 -987.239868 1448.372803 0.001431 0.000000 89.965736 -31.038221 1752.833740
